<?plantuml 1.2026.2?><svg xmlns="http://www.w3.org/2000/svg" xmlns:xlink="http://www.w3.org/1999/xlink" contentStyleType="text/css" data-diagram-type="DESCRIPTION" height="428px" preserveAspectRatio="none" style="width:456px;height:428px;background:#FFFFFF;" version="1.1" viewBox="0 0 456 428" width="456px" zoomAndPan="magnify"><defs/><g><!--cluster browser--><g class="cluster" data-qualified-name="browser" data-source-line="1" id="ent0002"><polygon fill="none" points="80,16,90,6,372,6,372,97,362,107,80,107,80,16" style="stroke:#181818;stroke-width:1;"/><line style="stroke:#181818;stroke-width:1;" x1="362" x2="372" y1="16" y2="6"/><line style="stroke:#181818;stroke-width:1;" x1="80" x2="362" y1="16" y2="16"/><line style="stroke:#181818;stroke-width:1;" x1="362" x2="362" y1="16" y2="107"/><text fill="#000000" font-family="sans-serif" font-size="14" font-weight="bold" lengthAdjust="spacing" textLength="58.0018" x="192.9991" y="33.9659">Browser</text></g><!--cluster astro_dev--><g class="cluster" data-qualified-name="astro_dev" data-source-line="4" id="ent0004"><polygon fill="none" points="126,168,136,158,439,158,439,249,429,259,126,259,126,168" style="stroke:#181818;stroke-width:1;"/><line style="stroke:#181818;stroke-width:1;" x1="429" x2="439" y1="168" y2="158"/><line style="stroke:#181818;stroke-width:1;" x1="126" x2="429" y1="168" y2="168"/><line style="stroke:#181818;stroke-width:1;" x1="429" x2="429" y1="168" y2="259"/><text fill="#000000" font-family="sans-serif" font-size="14" font-weight="bold" lengthAdjust="spacing" textLength="114.2816" x="221.3592" y="185.9659">Astro dev server</text></g><!--cluster filesystem--><g class="cluster" data-qualified-name="filesystem" data-source-line="8" id="ent0007"><polygon fill="none" points="16,320,26,310,410,310,410,401,400,411,16,411,16,320" style="stroke:#181818;stroke-width:1;"/><line style="stroke:#181818;stroke-width:1;" x1="400" x2="410" y1="320" y2="310"/><line style="stroke:#181818;stroke-width:1;" x1="16" x2="400" y1="320" y2="320"/><line style="stroke:#181818;stroke-width:1;" x1="400" x2="400" y1="320" y2="411"/><text fill="#000000" font-family="sans-serif" font-size="14" font-weight="bold" lengthAdjust="spacing" textLength="160.8314" x="128.5843" y="337.9659">paper_v2 content store</text></g><!--entity editorial_browser_ui--><g class="entity" data-qualified-name="browser.editorial_browser_ui" data-source-line="2" id="ent0003"><rect fill="#F1F1F1" height="42.0679" rx="2.5" ry="2.5" style="stroke:#181818;stroke-width:0.5;" width="259.7671" x="96" y="49"/><polygon fill="#F1F1F1" points="338.7671,54,338.7671,68,350.7671,68,350.7671,60,344.7671,54,338.7671,54" style="stroke:#181818;stroke-width:0.5;"/><line style="stroke:#181818;stroke-width:0.5;" x1="344.7671" x2="344.7671" y1="54" y2="60"/><line style="stroke:#181818;stroke-width:0.5;" x1="350.7671" x2="344.7671" y1="60" y2="60"/><text fill="#000000" font-family="sans-serif" font-size="14" lengthAdjust="spacing" textLength="229.7671" x="106" y="76.9659">index.astro (document + inspector)</text></g><!--entity graph_api--><g class="entity" data-qualified-name="astro_dev.graph_api" data-source-line="5" id="ent0005"><rect fill="#F1F1F1" height="42.0679" rx="2.5" ry="2.5" style="stroke:#181818;stroke-width:0.5;" width="141.4956" x="142.5" y="201"/><polygon fill="#F1F1F1" points="266.9956,206,266.9956,220,278.9956,220,278.9956,212,272.9956,206,266.9956,206" style="stroke:#181818;stroke-width:0.5;"/><line style="stroke:#181818;stroke-width:0.5;" x1="272.9956" x2="272.9956" y1="206" y2="212"/><line style="stroke:#181818;stroke-width:0.5;" x1="278.9956" x2="272.9956" y1="212" y2="212"/><text fill="#000000" font-family="sans-serif" font-size="14" lengthAdjust="spacing" textLength="111.4956" x="152.5" y="228.9659">api/graph.json.ts</text></g><!--entity static_app--><g class="entity" data-qualified-name="astro_dev.static_app" data-source-line="6" id="ent0006"><rect fill="#F1F1F1" height="42.0679" rx="2.5" ry="2.5" style="stroke:#181818;stroke-width:0.5;" width="104.1017" x="319" y="201"/><polygon fill="#F1F1F1" points="406.1017,206,406.1017,220,418.1017,220,418.1017,212,412.1017,206,406.1017,206" style="stroke:#181818;stroke-width:0.5;"/><line style="stroke:#181818;stroke-width:0.5;" x1="412.1017" x2="412.1017" y1="206" y2="212"/><line style="stroke:#181818;stroke-width:0.5;" x1="418.1017" x2="412.1017" y1="212" y2="212"/><text fill="#000000" font-family="sans-serif" font-size="14" lengthAdjust="spacing" textLength="74.1017" x="329" y="228.9659">built assets</text></g><!--entity sldb_docs--><g class="entity" data-qualified-name="filesystem.sldb_docs" data-source-line="9" id="ent0008"><rect fill="#F1F1F1" height="42.0679" rx="2.5" ry="2.5" style="stroke:#181818;stroke-width:0.5;" width="363.1707" x="31.5" y="353"/><polygon fill="#F1F1F1" points="377.6707,358,377.6707,372,389.6707,372,389.6707,364,383.6707,358,377.6707,358" style="stroke:#181818;stroke-width:0.5;"/><line style="stroke:#181818;stroke-width:0.5;" x1="383.6707" x2="383.6707" y1="358" y2="364"/><line style="stroke:#181818;stroke-width:0.5;" x1="389.6707" x2="383.6707" y1="364" y2="364"/><text fill="#000000" font-family="sans-serif" font-size="14" lengthAdjust="spacing" textLength="333.1707" x="41.5" y="380.9659">manuscript/ sections/ paragraphs/ notes/ sources/</text></g><!--link editorial_browser_ui to graph_api--><g class="link" data-entity-1="ent0003" data-entity-2="ent0005" data-link-type="dependency" data-source-line="12" id="lnk9"><path d="M203.8,91.11 C195.61,99.98 187.28,111.1 183,123 C173.42,149.62 184.2333,175.8289 196.1433,195.7689" fill="none" id="editorial_browser_ui-to-graph_api" style="stroke:#181818;stroke-width:1;"/><polygon fill="#181818" points="199.22,200.92,198.039,191.1422,196.6561,196.6274,191.1709,195.2445,199.22,200.92" style="stroke:#181818;stroke-width:1;"/><text fill="#000000" font-family="sans-serif" font-size="13" lengthAdjust="spacing" textLength="171.2492" x="184" y="137.897">HTTP (fetch /api/graph.json)</text></g><!--link graph_api to sldb_docs--><g class="link" data-entity-1="ent0005" data-entity-2="ent0008" data-link-type="dependency" data-source-line="13" id="lnk10"><path d="M213,243.23 C213,271.86 213,317.9 213,346.61" fill="none" id="graph_api-to-sldb_docs" style="stroke:#181818;stroke-width:1;"/><polygon fill="#181818" points="213,352.61,217,343.61,213,347.61,209,343.61,213,352.61" style="stroke:#181818;stroke-width:1;"/><text fill="#000000" font-family="sans-serif" font-size="13" lengthAdjust="spacing" textLength="93.1451" x="214" y="289.897">filesystem read</text></g><!--link static_app to editorial_browser_ui--><g class="link" data-entity-1="ent0006" data-entity-2="ent0003" data-link-type="dependency" data-source-line="14" id="lnk11"><path d="M374.4,200.75 C376.83,179.21 377.13,145.25 360,123 C349.11,108.86 339.313,101.0729 322.973,93.5729" fill="none" id="static_app-to-editorial_browser_ui" style="stroke:#181818;stroke-width:1;"/><polygon fill="#181818" points="317.52,91.07,324.0309,98.4597,322.0642,93.1558,327.3681,91.189,317.52,91.07" style="stroke:#181818;stroke-width:1;"/><text fill="#000000" font-family="sans-serif" font-size="13" lengthAdjust="spacing" textLength="32.864" x="370" y="137.897">serve</text></g><?plantuml-src RL2nJiD03Dtp5LQcLgY9nDW12IR63jqZvywXXzAxqza98CI_uroYXg1EVhBVytks3vQWV4dXWocLW0pjZE6x0C0ahaCZK3flwRD2bXHWPuCPhkG57i1vZcGaf7qMatMA7VRDigOPNF5J-EpodDMMHj31kDZbbStKt1fYTFLRmdYftZduIZYpSwVHsORR3guN7JCjD1OKPvGNR-OHewOP7y44BrDsrg2KsPthYRzOwFelmnNzm2QvABL6DkA2vneY9imv5FiWf8N3a8o2sRotRQClOlKkxZq43eUdzH8umklvV89THs8kK6yFtnShSPBTbgliJ-v4Q8lrwaozQtsSV_yB?></g></svg>