<?plantuml 1.2026.2?><svg xmlns="http://www.w3.org/2000/svg" xmlns:xlink="http://www.w3.org/1999/xlink" contentStyleType="text/css" data-diagram-type="STATE" height="401px" preserveAspectRatio="none" style="width:1198px;height:401px;background:#FFFFFF;" version="1.1" viewBox="0 0 1198 401" width="1198px" zoomAndPan="magnify"><defs/><g><g class="start_entity" data-qualified-name=".start." data-source-line="1" id="ent0002"><ellipse cx="473.5" cy="16" fill="#222222" rx="10" ry="10" style="stroke:#222222;stroke-width:1;"/></g><g class="entity" data-qualified-name="incomplete" id="ent0003"><rect fill="#F1F1F1" height="50" rx="12.5" ry="12.5" style="stroke:#181818;stroke-width:0.5;" width="93.6117" x="426.5" y="87"/><line style="stroke:#181818;stroke-width:0.5;" x1="426.5" x2="520.1117" y1="116.0679" y2="116.0679"/><text fill="#000000" font-family="sans-serif" font-size="14" lengthAdjust="spacing" textLength="73.6117" x="436.5" y="106.9659">incomplete</text></g><g class="entity" data-qualified-name="missing_note" id="ent0005"><rect fill="#F1F1F1" height="50" rx="12.5" ry="12.5" style="stroke:#181818;stroke-width:0.5;" width="107.2757" x="7" y="216"/><line style="stroke:#181818;stroke-width:0.5;" x1="7" x2="114.2757" y1="245.0679" y2="245.0679"/><text fill="#000000" font-family="sans-serif" font-size="14" lengthAdjust="spacing" textLength="87.2757" x="17" y="235.9659">missing_note</text></g><g class="entity" data-qualified-name="missing_source" id="ent0007"><rect fill="#F1F1F1" height="50" rx="12.5" ry="12.5" style="stroke:#181818;stroke-width:0.5;" width="121.4296" x="173" y="216"/><line style="stroke:#181818;stroke-width:0.5;" x1="173" x2="294.4296" y1="245.0679" y2="245.0679"/><text fill="#000000" font-family="sans-serif" font-size="14" lengthAdjust="spacing" textLength="101.4296" x="183" y="235.9659">missing_source</text></g><g class="entity" data-qualified-name="evidence_pending" id="ent0009"><rect fill="#F1F1F1" height="50" rx="12.5" ry="12.5" style="stroke:#181818;stroke-width:0.5;" width="139.2515" x="404" y="216"/><line style="stroke:#181818;stroke-width:0.5;" x1="404" x2="543.2515" y1="245.0679" y2="245.0679"/><text fill="#000000" font-family="sans-serif" font-size="14" lengthAdjust="spacing" textLength="119.2515" x="414" y="235.9659">evidence_pending</text></g><g class="entity" data-qualified-name="supported" id="ent0011"><rect fill="#F1F1F1" height="50" rx="12.5" ry="12.5" style="stroke:#181818;stroke-width:0.5;" width="88.3898" x="429.5" y="345"/><line style="stroke:#181818;stroke-width:0.5;" x1="429.5" x2="517.8898" y1="374.0679" y2="374.0679"/><text fill="#000000" font-family="sans-serif" font-size="14" lengthAdjust="spacing" textLength="68.3898" x="439.5" y="364.9659">supported</text></g><!--link *start* to incomplete--><g class="link" data-entity-1="ent0002" data-entity-2="ent0003" data-link-type="dependency" data-source-line="1" id="lnk4"><path d="M473.5,26.01 C473.5,39.89 473.5,60.97 473.5,80.84" fill="none" id="*start*-to-incomplete" style="stroke:#181818;stroke-width:1;"/><polygon fill="#181818" points="473.5,86.84,477.5,77.84,473.5,81.84,469.5,77.84,473.5,86.84" style="stroke:#181818;stroke-width:1;"/></g><!--link incomplete to missing_note--><g class="link" data-entity-1="ent0003" data-entity-2="ent0005" data-link-type="dependency" data-source-line="3" id="lnk6"><path d="M426.42,115.75 C323.45,122.25 85.48,140.05 61.5,167 C49.96,179.97 49.363,194.0749 52.353,209.8549" fill="none" id="incomplete-to-missing_note" style="stroke:#181818;stroke-width:1;"/><polygon fill="#181818" points="53.47,215.75,55.7246,206.1627,52.5392,210.8374,47.8644,207.652,53.47,215.75" style="stroke:#181818;stroke-width:1;"/><text fill="#000000" font-family="sans-serif" font-size="13" lengthAdjust="spacing" textLength="155.2072" x="62.5" y="181.897">compose [no linked note]</text></g><!--link incomplete to missing_source--><g class="link" data-entity-1="ent0003" data-entity-2="ent0007" data-link-type="dependency" data-source-line="4" id="lnk8"><path d="M426.32,116.77 C363.4,122.89 257.18,137.4 233.5,167 C222.73,180.46 222.2785,194.3277 225.2685,209.8977" fill="none" id="incomplete-to-missing_source" style="stroke:#181818;stroke-width:1;"/><polygon fill="#181818" points="226.4,215.79,228.6309,206.1971,225.457,210.8797,220.7745,207.7059,226.4,215.79" style="stroke:#181818;stroke-width:1;"/><text fill="#000000" font-family="sans-serif" font-size="13" lengthAdjust="spacing" textLength="227.6172" x="234.5" y="181.897">compose [note exists, no source refs]</text></g><!--link incomplete to evidence_pending--><g class="link" data-entity-1="ent0003" data-entity-2="ent0009" data-link-type="dependency" data-source-line="5" id="lnk10"><path d="M471.87,137.18 C471.32,146.5 470.77,157.24 470.5,167 C470.05,183.23 470.437,195.491 471.297,209.681" fill="none" id="incomplete-to-evidence_pending" style="stroke:#181818;stroke-width:1;"/><polygon fill="#181818" points="471.66,215.67,475.1082,206.4445,471.3575,210.6792,467.1229,206.9285,471.66,215.67" style="stroke:#181818;stroke-width:1;"/><text fill="#000000" font-family="sans-serif" font-size="13" lengthAdjust="spacing" textLength="321.5553" x="471.5" y="181.897">compose [sources linked, excerpt or anchor missing]</text></g><!--link incomplete to supported--><g class="link" data-entity-1="ent0003" data-entity-2="ent0011" data-link-type="dependency" data-source-line="6" id="lnk12"><path d="M520.66,113.69 C601.82,115.99 762.58,125.77 797.5,167 C885.23,270.56 631.2404,336.4396 523.6704,359.1696" fill="none" id="incomplete-to-supported" style="stroke:#181818;stroke-width:1;"/><polygon fill="#181818" points="517.8,360.41,527.4325,362.4629,522.692,359.3763,525.7786,354.6358,517.8,360.41" style="stroke:#181818;stroke-width:1;"/><text fill="#000000" font-family="sans-serif" font-size="13" lengthAdjust="spacing" textLength="217.3732" x="814.5" y="246.397">compose [note + sources complete]</text></g><!--link supported to incomplete--><g class="link" data-entity-1="ent0011" data-entity-2="ent0003" data-link-type="dependency" data-source-line="10" id="lnk16"><path d="M517.91,367.95 C639.59,364.04 973.66,346.07 1040.5,266 C1054.74,248.94 1054.33,233.39 1040.5,216 C976.05,134.95 651.1074,117.8066 526.7774,114.1466" fill="none" id="supported-to-incomplete" style="stroke:#181818;stroke-width:1;"/><polygon fill="#181818" points="520.78,113.97,529.6584,118.2331,525.7778,114.1171,529.8938,110.2366,520.78,113.97" style="stroke:#181818;stroke-width:1;"/><text fill="#000000" font-family="sans-serif" font-size="13" lengthAdjust="spacing" textLength="139.0221" x="1051.5" y="246.397">remove note or source</text></g><!--link missing_note to supported--><g class="link" data-entity-1="ent0005" data-entity-2="ent0011" data-link-type="dependency" data-source-line="7" id="lnk13"><path d="M114.18,260.99 C157.94,276.24 221.43,297.86 277.5,315 C329.31,330.84 383.6572,345.5743 423.5172,356.0543" fill="none" id="missing_note-to-supported" style="stroke:#181818;stroke-width:1;"/><polygon fill="#181818" points="429.32,357.58,421.6329,351.423,424.4843,356.3086,419.5987,359.16,429.32,357.58" style="stroke:#181818;stroke-width:1;"/><text fill="#000000" font-family="sans-serif" font-size="13" lengthAdjust="spacing" textLength="52.9881" x="278.5" y="310.897">link note</text></g><!--link missing_source to supported--><g class="link" data-entity-1="ent0007" data-entity-2="ent0011" data-link-type="dependency" data-source-line="8" id="lnk14"><path d="M278.92,266.04 C322.14,288.9 381.4261,320.2848 424.1761,342.8948" fill="none" id="missing_source-to-supported" style="stroke:#181818;stroke-width:1;"/><polygon fill="#181818" points="429.48,345.7,423.3943,337.9563,425.0601,343.3624,419.6541,345.0282,429.48,345.7" style="stroke:#181818;stroke-width:1;"/><text fill="#000000" font-family="sans-serif" font-size="13" lengthAdjust="spacing" textLength="72.3581" x="369.5" y="310.897">link sources</text></g><!--link evidence_pending to supported--><g class="link" data-entity-1="ent0009" data-entity-2="ent0011" data-link-type="dependency" data-source-line="9" id="lnk15"><path d="M473.5,266.19 C473.5,288.78 473.5,316.33 473.5,338.9" fill="none" id="evidence_pending-to-supported" style="stroke:#181818;stroke-width:1;"/><polygon fill="#181818" points="473.5,344.9,477.5,335.9,473.5,339.9,469.5,335.9,473.5,344.9" style="stroke:#181818;stroke-width:1;"/><text fill="#000000" font-family="sans-serif" font-size="13" lengthAdjust="spacing" textLength="136.6691" x="474.5" y="310.897">fill excerpt and anchor</text></g><?plantuml-src TL5B3eCW4DrpYbctUe4kUX5ZZ86n9SM1CDZq-0N5Mh5TGNYVUMzeJYtKzHKqIJiwWm65sEupD6fcJRUER7ouGC8i8pHamMXwe8A4jFzaR2Sl2s6au4jpu2fg8JCy3dnmmQTMI18xXwIYtRVFekESeegM4hqBO3tq9E_no1aEhZmvPts8qSjOPrXTLq4hTWievMdul01H5Fv9pERYKAja3zgOJw6UL6uaDix-rwB4usYVE6T9ArX6lG40?></g></svg>